# xmcd CD database file
#
# Track frame offsets:
#	150
#	2119
#	21684
#	49688
#	76680
#	102590
#	122017
#	146046
#	170805
#
# Disc length: 2682 seconds
#
# Revision: 0
# Processed by: cddbd v1.5.2PL0 Copyright (c) Steve Scherf et al.
# Submitted via: CDex 1.70beta2
#
DISCID=790a7809
DTITLE=jizue - Bookshelf
DYEAR=2010
DGENRE=Jazz
TTITLE0=intro
TTITLE1=Rain Dog
TTITLE2=En
TTITLE3=sister
TTITLE4=最後の朝
TTITLE5=Island
TTITLE6=Tower
TTITLE7=SAKURA
TTITLE8=home
EXTD=YEAR: 2010
EXTT0=
EXTT1=
EXTT2=
EXTT3=
EXTT4=
EXTT5=
EXTT6=
EXTT7=
EXTT8=
PLAYORDER=
